<svg xmlns="http://www.w3.org/2000/svg" width="640" height="300" viewBox="0 0 640 300" role="img" aria-label="Sauger icon">
<defs>
  <linearGradient id="body" x1="0" x2="1">
    <stop offset="0%" stop-color="#9fb0c1"/>
    <stop offset="55%" stop-color="#647483"/>
    <stop offset="100%" stop-color="#374451"/>
  </linearGradient>
  <linearGradient id="belly" x1="0" x2="1">
    <stop offset="0%" stop-color="#e7edf4"/>
    <stop offset="100%" stop-color="#b3c1cf" stop-opacity=".55"/>
  </linearGradient>
</defs>
<path d="M120 150C167 90 278 74 397 101C452 114 499 137 533 150C499 163 452 186 397 199C278 226 167 210 120 150Z" fill="url(#body)"/>
<path d="M525 150L613 103L595 150L613 197Z" fill="url(#body)"/>
<path d="M160 150C247 121 353 122 469 149" stroke="#f8fafc" stroke-width="10" stroke-linecap="round" opacity=".15" fill="none"/>
<path d="M199 123C214 138 230 153 247 167" stroke="#374451" stroke-width="6" stroke-linecap="round" opacity=".3" fill="none"/>
<path d="M250 115C263 129 276 143 291 156" stroke="#374451" stroke-width="6" stroke-linecap="round" opacity=".3" fill="none"/>
<path d="M301 111C315 126 328 140 343 154" stroke="#374451" stroke-width="6" stroke-linecap="round" opacity=".3" fill="none"/>
<path d="M352 115C365 129 378 143 392 157" stroke="#374451" stroke-width="6" stroke-linecap="round" opacity=".3" fill="none"/>
<path d="M404 123C416 137 428 149 442 161" stroke="#374451" stroke-width="6" stroke-linecap="round" opacity=".3" fill="none"/>
<path d="M176 168C209 180 242 185 274 184" stroke="#0f172a" stroke-width="7" stroke-linecap="round" opacity=".22" fill="none"/>
<circle cx="236" cy="138" r="14" fill="#f8fafc"/>
<circle cx="239" cy="139" r="6" fill="#0f172a"/>
<path d="M192 160C214 146 239 140 266 141C245 154 219 164 192 160Z" fill="#374451" opacity=".45"/>
<path d="M305 148C321 146 337 146 353 148" stroke="url(#belly)" stroke-width="10" stroke-linecap="round" opacity=".72" fill="none"/>
</svg>
